<?xml version="1.0" encoding="iso-8859-1"?>
<!-- Uploaded to: SVG Repo, www.svgrepo.com, Generator: SVG Repo Mixer Tools -->
<!DOCTYPE svg PUBLIC "-//W3C//DTD SVG 1.1//EN" "http://www.w3.org/Graphics/SVG/1.1/DTD/svg11.dtd">
<svg fill="#000000" height="800px" width="800px" version="1.1" id="Capa_1" xmlns="http://www.w3.org/2000/svg" xmlns:xlink="http://www.w3.org/1999/xlink" 
	 viewBox="0 0 297 297" xml:space="preserve">
<path d="M243.841,100.308c4.258-6.164,12.225-18.258,17.723-30.012c4.984-10.655,10.557-25.913,1.436-35.361
	c-2.384-2.468-6.797-5.408-14.28-5.408c-1.476,0-3.016,0.107-4.639,0.326c-3.16-6.912-7.601-11.111-13.264-12.522
	c-1.29-0.321-2.628-0.484-3.975-0.484c-4.506,0-9.016,1.747-13.639,5.305c-4.852-3.479-9.463-5.187-13.948-5.187
	c-1.759,0-3.48,0.269-5.124,0.802c-1.007,0.327-1.941,0.741-2.82,1.217c-1.302-3.924-3.594-7.331-7.36-9.685
	c-5.198-3.247-11.811-3.446-19.584-0.354C159.628,3.001,154.304,0,148.464,0c-5.839,0-11.165,3.001-15.902,8.943
	c-7.773-3.092-14.387-2.894-19.585,0.355c-3.838,2.398-6.148,5.89-7.438,9.907c-0.681-0.345-1.397-0.65-2.154-0.911
	c-1.722-0.593-3.542-0.893-5.41-0.893c-4.388,0-8.925,1.627-13.728,4.945c-4.663-3.722-9.238-5.548-13.845-5.548
	c-1.242,0-2.48,0.141-3.688,0.418c-5.687,1.315-10.198,5.438-13.478,12.29c-1.804-0.275-3.508-0.411-5.131-0.411
	c-7.195,0-11.516,2.81-13.872,5.166c-9.285,9.284-3.98,24.637,0.816,35.378c5.293,11.849,13.046,24.079,17.196,30.315
	c4.343,6.524,10.268,11.415,16.912,14.198H50.653c-4.434,0-8.313,2.959-9.508,7.229s0.611,8.818,4.401,11.118
	c0.19,0.115,19.169,11.789,33.998,34.352c19.489,29.65,23.074,63.574,10.655,100.83c-1.004,3.014-0.499,6.326,1.358,8.903
	c1.858,2.578,4.841,4.105,8.018,4.105h6.425v6.424c0,5.458,4.426,9.884,9.884,9.884s9.883-4.426,9.883-9.884v-6.424h12.849v6.424
	c0,5.458,4.426,9.884,9.884,9.884c5.458,0,9.884-4.426,9.884-9.884v-6.424h12.849v6.424c0,5.458,4.425,9.884,9.883,9.884
	c5.459,0,9.884-4.426,9.884-9.884v-6.424h6.425c0.007,0.001,0.015,0,0.019,0c5.459,0,9.884-4.426,9.884-9.884
	c0-1.315-0.257-2.57-0.723-3.718c-12.184-37.022-8.534-70.744,10.852-100.237c14.829-22.564,33.808-34.237,33.977-34.34
	c3.81-2.285,5.626-6.833,4.439-11.113c-1.185-4.281-5.081-7.246-9.524-7.246h-19.535
	C233.458,111.472,239.427,106.693,243.841,100.308z M123.999,26.867c1.366,0.425,3.596,1.348,6.866,3.363
	c2.342,1.441,5.177,1.843,7.823,1.109c2.648-0.733,4.873-2.538,6.137-4.979c1.537-2.965,2.788-4.693,3.639-5.671
	c0.852,0.978,2.102,2.706,3.639,5.671c1.265,2.441,3.486,4.245,6.135,4.979c2.648,0.733,5.482,0.332,7.824-1.109
	c3.269-2.014,5.498-2.938,6.866-3.362c0.69,5.44-1.376,19.978-10.248,43.524c-2.031,5.389-6.832,11.146-14.216,11.146
	c-7.383,0-12.184-5.758-14.215-11.146C125.375,46.846,123.31,32.307,123.999,26.867z M48.925,48.897
	c1.376,0.104,3.764,0.493,7.445,1.734c2.606,0.876,5.457,0.632,7.872-0.679c2.415-1.31,4.175-3.568,4.858-6.23
	c0.83-3.234,1.662-5.2,2.271-6.345c1.05,0.763,2.66,2.165,4.823,4.709c1.782,2.093,4.354,3.35,7.099,3.468
	c2.759,0.14,5.417-0.909,7.372-2.839c2.743-2.707,4.7-4.107,5.932-4.825c1.896,5.141,3.152,19.772-0.194,44.719
	c-0.767,5.707-4.148,12.396-11.345,14.059c-1.006,0.233-2.021,0.351-3.02,0.351c-5.012-0.001-9.997-2.997-13.337-8.016
	C54.754,68.051,49.473,54.349,48.925,48.897z M115.993,85.238c0.213-1.582,0.453-3.496,0.695-5.631
	c4.438,9.953,12.441,17.18,21.928,20.167v14.38H94.929C106.159,109.392,114.203,98.581,115.993,85.238z M95.569,155.249
	c-5.647-8.472-11.746-15.578-17.433-21.327h130.122l-91.74,104.846C119.95,201.988,107.975,173.855,95.569,155.249z
	 M184.267,260.925h-60.871l61.496-70.281C179.292,209.883,177.458,233.398,184.267,260.925z M158.384,114.154v-14.4
	c9.223-2.927,17.038-9.865,21.526-19.42c0.155,1.535,0.309,2.939,0.45,4.145c1.596,13.743,9.854,24.925,21.504,29.676H158.384z
	 M214.329,96.851c-1.075,0-2.166-0.136-3.239-0.403c-7.168-1.789-10.43-8.535-11.096-14.256
	c-2.917-24.999-1.401-39.608,0.585-44.717c1.22,0.738,3.152,2.173,5.845,4.926c1.921,1.966,4.558,3.031,7.322,2.973
	c2.747-0.071,5.341-1.282,7.159-3.345c2.211-2.507,3.842-3.88,4.905-4.623c0.589,1.154,1.384,3.134,2.156,6.383
	c0.637,2.673,2.357,4.961,4.749,6.313c2.394,1.354,5.238,1.648,7.858,0.818c3.627-1.153,6.005-1.524,7.48-1.607
	c-0.646,5.441-6.166,19.05-20.478,39.757C224.21,93.942,219.259,96.851,214.329,96.851z"/>
</svg>