<?xml version='1.0' encoding='iso-8859-1'?>
<!-- Uploaded to: SVG Repo, www.svgrepo.com, Generator: SVG Repo Mixer Tools -->
<svg fill="#000000" height="800px" width="800px" version="1.1" xmlns="http://www.w3.org/2000/svg" viewBox="0 0 470 470" xmlns:xlink="http://www.w3.org/1999/xlink" enable-background="new 0 0 470 470">
  <g>
    <circle cx="187" cy="348.75" r="7.5"/>
    <circle cx="157" cy="368.75" r="7.5"/>
    <circle cx="379" cy="74.75" r="7.5"/>
    <path d="m469.291,277.306l-14.508-30.941 14.508-30.943c0.945-2.017 0.945-4.35 0-6.368l-14.508-30.941 14.508-30.94c0.945-2.018 0.945-4.351-0.001-6.368l-14.507-30.936 14.507-30.936c0.946-2.017 0.946-4.351 0.001-6.368l-14.508-30.94 14.508-30.94c1.089-2.323 0.915-5.042-0.461-7.207-1.377-2.166-3.765-3.478-6.33-3.478h-341.25c-66.857,0-121.25,54.393-121.25,121.25 0,0.136 0.005,0.271 0.005,0.407 0,0.034-0.005,0.068-0.005,0.102v226.99c0,66.859 54.393,121.251 121.25,121.251s121.25-54.392 121.25-121.25v-227.5c0-45.713-25.432-85.594-62.888-106.25h271.088l-10.991,23.44c-0.945,2.018-0.945,4.351 0,6.368l14.508,30.94-14.507,30.936c-0.946,2.017-0.946,4.351 0,6.368l14.507,30.936-14.508,30.94c-0.945,2.018-0.945,4.351 0,6.368l14.508,30.941-14.508,30.943c-0.945,2.017-0.945,4.35 0,6.368l14.508,30.942-14.508,30.946c-0.945,2.017-0.945,4.35 0,6.367l10.992,23.447h-185.701c-4.143,0-7.5,3.358-7.5,7.5s3.357,7.5 7.5,7.5h197.5c2.565,0 4.953-1.312 6.329-3.477 1.377-2.166 1.551-4.884 0.462-7.207l-14.508-30.947 14.508-30.946c0.945-2.017 0.945-4.35 0-6.367zm-348.041,177.694c-58.587,0-106.25-47.663-106.25-106.25v-169.137c20.656,37.455 60.537,62.887 106.25,62.887s85.594-25.432 106.25-62.888v169.138c0,58.587-47.663,106.25-106.25,106.25zm0-227.5c-58.587,0-106.25-47.663-106.25-106.25s47.663-106.25 106.25-106.25 106.25,47.664 106.25,106.25-47.663,106.25-106.25,106.25z"/>
    <path d="m121.25,75.834c-25.043,0-45.417,20.374-45.417,45.417 0,18.164 10.775,34.541 27.45,41.722 3.809,1.639 8.217-0.117 9.855-3.921 0.099-0.231 0.185-0.463 0.26-0.698 1.157-3.632-0.608-7.618-4.181-9.157-11.168-4.81-18.384-15.779-18.384-27.946 0-16.771 13.645-30.417 30.417-30.417s30.417,13.645 30.417,30.417c0,12.167-7.216,23.136-18.384,27.946-3.573,1.539-5.338,5.526-4.181,9.157 0.075,0.234 0.16,0.467 0.26,0.698 1.223,2.837 3.987,4.535 6.893,4.535 0.989,0 1.996-0.197 2.963-0.614 16.675-7.181 27.45-23.558 27.45-41.722-0.001-25.044-20.375-45.417-45.418-45.417z"/>
    <path d="m137.724,39.562c-4.067-0.813-8.014,1.819-8.827,5.881-0.024,0.119-0.035,0.237-0.053,0.356-0.596,3.933 1.99,7.681 5.933,8.471 27.063,5.422 48.049,26.403 53.467,53.453 0.714,3.564 3.845,6.029 7.346,6.029 0.368,0 0.74-0.037 1.113-0.093 0.123-0.018 0.245-0.03 0.368-0.055 4.062-0.813 6.694-4.765 5.881-8.827-6.611-33.002-32.214-58.601-65.228-65.215z"/>
    <path d="m188.243,134.777c-6.36,31.757-34.535,54.806-66.993,54.806-37.679,0-68.333-30.654-68.333-68.334 0-32.458 23.049-60.632 54.806-66.992 3.939-0.789 6.524-4.53 5.935-8.46-0.018-0.122-0.03-0.244-0.054-0.367-0.813-4.062-4.766-6.695-8.826-5.881-38.741,7.759-66.86,42.119-66.86,81.7 0,45.95 37.383,83.334 83.333,83.334 39.581,0 73.941-28.119 81.7-66.861 0.813-4.062-1.819-8.013-5.881-8.827-0.123-0.025-0.245-0.036-0.368-0.054-3.93-0.586-7.67,1.998-8.459,5.936z"/>
  </g>
</svg>