<?xml version="1.0" encoding="iso-8859-1"?>
<!-- Uploaded to: SVG Repo, www.svgrepo.com, Generator: SVG Repo Mixer Tools -->
<svg fill="#000000" height="800px" width="800px" version="1.1" id="Layer_1" xmlns="http://www.w3.org/2000/svg" xmlns:xlink="http://www.w3.org/1999/xlink" 
	 viewBox="0 0 512 512" xml:space="preserve">
<g>
	<g>
		<path d="M433.904,185.357L374.789,6.29c-1.24-3.754-4.748-6.29-8.702-6.29H145.914c-3.955,0-7.463,2.537-8.702,6.29
			L78.096,185.357c-0.542,1.646-0.608,3.41-0.189,5.09l78.46,314.606c1.018,4.082,4.685,6.947,8.891,6.947h181.483
			c4.208,0,7.874-2.865,8.893-6.946l78.459-314.607C434.512,188.767,434.446,187.002,433.904,185.357z M339.583,493.672H172.417
			L96.332,188.585l56.207-170.257h206.922l56.208,170.257L339.583,493.672z"/>
	</g>
</g>
<g>
	<g>
		<path d="M389.415,187.013L343.87,49.055c-1.24-3.754-4.748-6.29-8.702-6.29H176.831c-3.954,0-7.462,2.537-8.702,6.29
			l-45.545,137.958c-0.543,1.646-0.609,3.41-0.189,5.09l67.382,270.184c1.018,4.082,4.685,6.947,8.891,6.947h114.664
			c4.208,0,7.874-2.865,8.893-6.946l67.38-270.185C390.023,190.424,389.957,188.659,389.415,187.013z M306.172,450.907H205.828
			l-65.009-260.664l42.638-129.15h145.087l42.637,129.15L306.172,450.907z"/>
	</g>
</g>
<g>
	<g>
		<path d="M294.77,156.419h-29.606v-27.945c0-5.062-4.102-9.164-9.164-9.164s-9.164,4.102-9.164,9.164v27.945h-29.606
			c-5.062,0-9.164,4.102-9.164,9.164c0,5.062,4.102,9.164,9.164,9.164h29.606v86.593c0,5.062,4.102,9.164,9.164,9.164
			s9.164-4.102,9.164-9.164v-86.593h29.606c5.062,0,9.164-4.102,9.164-9.164C303.934,160.521,299.832,156.419,294.77,156.419z"/>
	</g>
</g>
</svg>