<?xml version="1.0" encoding="iso-8859-1"?>
<!-- Uploaded to: SVG Repo, www.svgrepo.com, Generator: SVG Repo Mixer Tools -->
<!DOCTYPE svg PUBLIC "-//W3C//DTD SVG 1.1//EN" "http://www.w3.org/Graphics/SVG/1.1/DTD/svg11.dtd">
<svg fill="#000000" height="800px" width="800px" version="1.1" id="Capa_1" xmlns="http://www.w3.org/2000/svg" xmlns:xlink="http://www.w3.org/1999/xlink" 
	 viewBox="0 0 224.447 224.447" xml:space="preserve">
<g>
	<path d="M223.136,99.771L184.009,42.63c-1.398-2.042-3.714-3.263-6.189-3.263H7.5c-4.143,0-7.5,3.358-7.5,7.5v110.872
		c0,4.142,3.357,7.5,7.5,7.5h22.846c4.524,11.598,15.811,19.841,28.994,19.841c13.181,0,24.466-8.243,28.989-19.841h42.549
		c4.523,11.598,15.807,19.841,28.987,19.841c13.18,0,24.463-8.243,28.986-19.841h28.096c4.143,0,7.5-3.358,7.5-7.5v-53.731
		C224.447,102.496,223.99,101.019,223.136,99.771z M59.34,170.08c-7.851,0-14.397-5.642-15.819-13.079
		c-0.027-0.273-0.068-0.542-0.123-0.806c-0.102-0.727-0.172-1.464-0.172-2.219c0-8.887,7.229-16.117,16.114-16.117
		c8.883,0,16.109,7.23,16.109,16.117c0,0.754-0.07,1.491-0.171,2.218c-0.056,0.264-0.098,0.534-0.124,0.807
		C73.733,164.439,67.188,170.08,59.34,170.08z M159.865,170.08c-7.853,0-14.401-5.651-15.815-13.097
		c-0.026-0.261-0.066-0.518-0.118-0.77c-0.102-0.733-0.174-1.476-0.174-2.237c0-8.887,7.226-16.117,16.107-16.117
		c8.881,0,16.105,7.23,16.105,16.117C175.971,162.856,168.746,170.08,159.865,170.08z M209.447,150.239h-18.709
		c-1.853-15.401-14.987-27.38-30.873-27.38c-15.888,0-29.023,11.979-30.875,27.38H90.217c-1.853-15.401-14.989-27.38-30.877-27.38
		c-15.891,0-29.029,11.979-30.882,27.38H15V54.367h158.866l35.581,51.962V150.239z"/>
	<path d="M166.989,59.051H151.87c-4.143,0-7.5,3.358-7.5,7.5v43.439c0,4.142,3.357,7.5,7.5,7.5h43.177
		c2.746,0,5.273-1.501,6.587-3.913c1.313-2.412,1.203-5.349-0.287-7.656l-28.058-43.439
		C171.908,60.343,169.535,59.051,166.989,59.051z M159.37,102.49V74.051h3.535l18.369,28.439H159.37z"/>
	<path d="M97.418,81.114H87.184V70.88c0-4.142-3.357-7.5-7.5-7.5c-4.143,0-7.5,3.358-7.5,7.5v10.234H61.951
		c-4.142,0-7.5,3.358-7.5,7.5c0,4.142,3.358,7.5,7.5,7.5h10.233v10.233c0,4.142,3.357,7.5,7.5,7.5c4.143,0,7.5-3.358,7.5-7.5V96.114
		h10.234c4.143,0,7.5-3.358,7.5-7.5C104.918,84.472,101.561,81.114,97.418,81.114z"/>
</g>
</svg>